<svg version="1.1" xmlns="http://www.w3.org/2000/svg" viewBox="0 0 588.5149404402828 422.0442074014936" width="588.5149404402828" height="422.0442074014936">
    <!-- svg-source:excalidraw -->
    <defs>
        <style class="style-fonts">
      @font-face {
        font-family: "Virgil";
        src: url("https://excalidraw.com/Virgil.woff2");
      }
      @font-face {
        font-family: "Cascadia";
        src: url("https://excalidraw.com/Cascadia.woff2");
      }
    </style>
    </defs>
    <rect x="0" y="0" width="588.5149404402828" height="422.0442074014936" fill="none"></rect>
    <g stroke-linecap="round">
        <g transform="translate(160.98745664022863 121.68499792646617) rotate(0 -59.157561821397394 90.26956703327596)" fill-rule="evenodd">
            <path d="M1 1.31 L24.69 35.85 L-93.75 99.28 L31.73 139.45 L19.66 183.37 L-149.62 128.79 L-148.67 74.96 L0.41 -0.7" stroke="none" stroke-width="0" fill="#000000" fill-rule="evenodd"></path>
            <path d="M-1.86 -0.51 C4.08 7.54, 10.02 14, 25.53 35.63 M0.55 0.45 C7.67 9.68, 16.6 22.33, 24.63 34.91 M23.87 35.24 C-6.04 52.98, -34.35 68.18, -92.76 100.14 M25.97 33.82 C-17.75 58.37, -60.76 82.55, -93.34 100.77 M-93.13 100.21 C-60.43 110.86, -27.13 120.88, 30.99 142.02 M-94.74 100.66 C-54.51 114.54, -15.4 127.04, 32.67 141.19 M30.72 141.69 C28.59 152.62, 24.63 168.3, 19.38 182.17 M31.59 140.09 C28.39 152.8, 24.64 165.71, 19.19 181.84 M19.53 180.82 C-34.66 164.11, -89.53 143.29, -150.39 126.32 M18.37 182.03 C-13.74 170.44, -48.68 159.54, -149.08 126.77 M-150.52 126.12 C-149.99 114.49, -148.66 102.54, -150.99 73.48 M-149.56 127.5 C-149.33 110.04, -149.14 93.68, -149 74.63 M-147.62 73.87 C-103.97 54.1, -63.11 31.65, 0.61 -1.63 M-149.69 74.89 C-113.36 55.79, -78.45 37.99, 0.21 -0.02 M0 0 C0 0, 0 0, 0 0 M0 0 C0 0, 0 0, 0 0" stroke="#000000" stroke-width="1" fill="none"></path>
        </g>
    </g>
    <mask></mask>
    <g stroke-linecap="round">
        <g transform="translate(420.33062978218686 121.68499792646617) rotate(0 61.7485906960502 91.05896625854075)" fill-rule="evenodd">
            <path d="M1.31 -0.31 L-24.54 34.25 L97.51 100.73 L-35.33 141.66 L-18.69 181.38 L159.08 127.33 L158.25 74.41 L-0.7 -0.78" stroke="none" stroke-width="0" fill="#000000" fill-rule="evenodd"></path>
            <path d="M-0.51 -1.31 C-6.31 5.96, -13.22 14.8, -24.76 34.34 M0.45 -0.26 C-8.72 11.17, -14.83 20.35, -25.48 33.57 M-25.15 33.15 C19.94 59.86, 62.48 83.46, 98.38 102.18 M-26.57 33.36 C22.78 57.76, 71.55 85.32, 99 100.66 M98.45 101.32 C68.43 110.91, 37.01 119.09, -32.76 141.3 M98.9 101.11 C69.01 108.52, 39.1 118.62, -33.6 141.16 M-33.1 142.05 C-32.37 151.03, -26.69 158.97, -19.89 181.8 M-34.69 140.97 C-28.94 155.24, -23.17 169.63, -20.21 182.29 M-21.24 183.43 C27.55 169.06, 71.02 151.49, 156.61 125.03 M-20.03 182.8 C24.11 169.45, 67.47 156.26, 157.07 126.16 M156.42 126.29 C156.06 108.96, 155.57 87.71, 156.78 74.16 M157.79 126.59 C156.26 111.67, 156.22 96.78, 157.92 73.93 M157.16 74.78 C124.62 57.24, 90.1 43.96, -1.63 -1.26 M158.18 74.64 C102.86 47.88, 48.85 22.57, -0.02 -0.95 M0 0 C0 0, 0 0, 0 0 M0 0 C0 0, 0 0, 0 0" stroke="#000000" stroke-width="1" fill="none"></path>
        </g>
    </g>
    <mask></mask>
    <g stroke-linecap="round">
        <g transform="translate(203.98745664022863 410.68499792646617) rotate(0 84.23303188650209 -199.66289422571845)" fill-rule="evenodd">
            <path d="M0.64 -1.52 L111.12 -400.71 L166.94 -399.39 L57.44 -0.99 L-0.52 0.16" stroke="none" stroke-width="0" fill="#228be6" fill-rule="evenodd"></path>
            <path d="M-0.71 -0.22 C25.85 -87.9, 51.1 -173.26, 112.18 -399.97 M-0.14 -0.51 C40 -145.4, 80.17 -291.05, 111.77 -399.71 M111.15 -398.18 C129.99 -400.53, 146.42 -401.2, 169.18 -398.26 M111.36 -399.2 C125.66 -398.96, 141.89 -400.13, 167.66 -400.68 M168.17 -400.11 C131.21 -261.72, 92.86 -121.78, 59.16 0.18 M168.06 -400.05 C142.36 -312.8, 119.19 -225.1, 59.08 0.53 M60.05 -0.24 C46.49 2.48, 31.97 0.91, -0.2 0.92 M58.97 0.82 C37.37 0.93, 15.94 -0.42, 0.29 -0.4 M0 0 C0 0, 0 0, 0 0 M0 0 C0 0, 0 0, 0 0" stroke="#000000" stroke-width="1" fill="none"></path>
        </g>
    </g>
    <mask></mask>
</svg>