<svg id="curve" class="curve" version="1.1" xmlns="http://www.w3.org/2000/svg" viewBox="0 0 2416.6771954795713 370.9492643484173" width="2416.6771954795713" height="370.9492643484173">
  <!-- svg-source:excalidraw -->
  <defs>
    <style class="style-fonts">
      @font-face {
        font-family: "Virgil";
        src: url("https://excalidraw.com/Virgil.woff2");
      }
      @font-face {
        font-family: "Cascadia";
        src: url("https://excalidraw.com/Cascadia.woff2");
      }
    </style>
  </defs>
  <rect x="0" y="0" width="2416.6771954795713" height="370.9492643484173" fill="none"></rect>
  <g transform="translate(69.08514049793712 75.51118474248142) rotate(23.923262592933522 1125.174414206987 87.38806497156429)" stroke="none">
    <path fill="#000" d="M 4.67,467.31 Q 4.67,467.31 14.55,478.63 24.43,489.95 31.36,498.60 38.30,507.24 46.95,512.86 55.60,518.47 63.07,523.58 70.54,528.69 84.52,530.50 98.50,532.30 109.15,533.25 119.79,534.19 134.26,528.52 148.72,522.84 158.50,516.86 168.27,510.87 179.33,498.71 190.39,486.54 198.10,478.63 205.81,470.72 216.08,456.45 226.35,442.17 234.45,430.99 242.56,419.80 258.60,394.00 274.65,368.19 285.17,352.11 295.70,336.03 311.25,317.73 326.79,299.43 336.91,286.81 347.04,274.20 361.83,263.35 376.63,252.51 386.81,247.84 396.98,243.16 409.94,241.09 422.90,239.02 430.37,238.00 437.84,236.99 451.32,244.51 464.79,252.04 475.64,260.34 486.48,268.64 506.08,298.94 525.67,329.25 533.79,343.20 541.90,357.14 548.84,367.88 555.79,378.62 569.11,388.87 582.42,399.13 592.04,407.58 601.66,416.03 613.32,421.71 624.97,427.39 633.36,429.80 641.74,432.21 652.28,433.21 662.82,434.22 669.02,434.36 675.23,434.50 683.01,430.09 690.80,425.67 698.95,420.14 707.11,414.60 721.19,400.06 735.27,385.52 745.07,375.46 754.87,365.40 770.61,343.95 786.35,322.49 796.66,305.94 806.97,289.39 821.46,268.45 835.95,247.52 848.57,232.25 861.19,216.98 882.06,195.44 902.93,173.90 918.12,158.56 933.31,143.21 957.29,125.21 981.27,107.22 996.09,98.28 1010.92,89.35 1031.04,80.47 1051.15,71.59 1064.49,67.76 1077.82,63.93 1101.36,64.75 1124.90,65.58 1140.41,68.52 1155.93,71.45 1175.63,80.35 1195.34,89.25 1210.78,96.72 1226.22,104.19 1249.06,114.83 1271.90,125.46 1288.77,132.44 1305.65,139.42 1322.80,146.12 1339.95,152.83 1350.00,156.95 1360.04,161.07 1373.64,162.64 1387.23,164.22 1395.88,164.95 1404.53,165.68 1414.72,163.58 1424.92,161.48 1432.26,155.99 1439.61,150.51 1451.63,133.60 1463.65,116.68 1472.41,98.41 1481.16,80.14 1492.20,54.83 1503.23,29.52 1510.73,14.84 1518.23,0.16 1533.22,-27.29 1548.21,-54.74 1556.41,-68.93 1564.61,-83.12 1572.70,-95.50 1580.79,-107.87 1596.25,-124.65 1611.72,-141.43 1623.80,-152.32 1635.88,-163.22 1656.69,-176.76 1677.50,-190.31 1688.27,-196.09 1699.04,-201.87 1719.81,-204.54 1740.57,-207.22 1757.54,-207.01 1774.51,-206.80 1794.43,-205.45 1814.35,-204.09 1835.07,-198.44 1855.79,-192.79 1876.72,-181.47 1897.64,-170.15 1916.07,-161.79 1934.50,-153.43 1957.97,-151.29 1981.43,-149.15 1996.81,-149.39 2012.18,-149.63 2027.89,-157.01 2043.60,-164.38 2055.74,-172.36 2067.87,-180.33 2085.23,-205.64 2102.60,-230.94 2111.17,-243.23 2119.75,-255.51 2132.60,-270.89 2145.46,-286.27 2152.65,-295.19 2159.83,-304.11 2170.27,-315.52 2180.70,-326.94 2188.90,-334.41 2197.10,-341.89 2211.86,-350.31 2226.62,-358.74 2232.55,-362.44 2238.47,-366.15 2239.36,-366.47 2240.25,-366.80 2241.20,-366.83 2242.15,-366.85 2243.06,-366.58 2243.97,-366.30 2244.74,-365.74 2245.51,-365.19 2246.06,-364.42 2246.61,-363.65 2246.89,-362.74 2247.17,-361.84 2247.15,-360.89 2247.12,-359.94 2246.79,-359.05 2246.47,-358.16 2245.87,-357.42 2245.28,-356.68 2244.48,-356.17 2243.68,-355.66 2242.76,-355.43 2241.84,-355.20 2240.89,-355.27 2239.95,-355.35 2239.08,-355.73 2238.20,-356.10 2237.50,-356.73 2236.79,-357.37 2236.33,-358.19 2235.86,-359.02 2235.68,-359.95 2235.50,-360.88 2235.63,-361.82 2235.76,-362.76 2236.18,-363.61 2236.60,-364.46 2237.27,-365.13 2237.94,-365.80 2238.79,-366.23 2239.64,-366.65 2240.58,-366.78 2241.52,-366.90 2242.45,-366.73 2243.38,-366.55 2244.21,-366.08 2245.03,-365.61 2245.67,-364.91 2246.30,-364.20 2246.68,-363.33 2247.05,-362.46 2247.13,-361.51 2247.21,-360.57 2246.98,-359.65 2246.75,-358.73 2246.24,-357.93 2245.73,-357.13 2244.99,-356.53 2244.25,-355.94 2244.25,-355.94 2244.25,-355.94 2238.02,-352.77 2231.80,-349.59 2217.96,-341.84 2204.13,-334.08 2196.29,-326.96 2188.45,-319.85 2178.23,-308.68 2168.01,-297.51 2160.76,-288.52 2153.51,-279.53 2140.94,-264.51 2128.36,-249.49 2119.79,-237.22 2111.23,-224.95 2092.53,-198.35 2073.84,-171.75 2060.91,-163.29 2047.97,-154.83 2030.33,-147.02 2012.69,-139.21 1996.56,-138.95 1980.43,-138.69 1955.38,-141.25 1930.34,-143.81 1911.48,-152.37 1892.62,-160.92 1872.78,-171.80 1852.95,-182.68 1833.27,-188.15 1813.60,-193.62 1793.98,-194.96 1774.37,-196.29 1758.09,-196.54 1741.82,-196.78 1722.79,-194.66 1703.76,-192.53 1693.49,-187.01 1683.21,-181.49 1663.05,-168.45 1642.89,-155.40 1631.16,-144.85 1619.43,-134.29 1604.50,-118.20 1589.57,-102.10 1581.64,-89.98 1573.71,-77.87 1565.57,-63.79 1557.43,-49.71 1542.51,-22.38 1527.59,4.94 1520.23,19.33 1512.86,33.72 1501.75,59.21 1490.63,84.70 1481.41,103.75 1472.19,122.80 1459.01,140.87 1445.83,158.93 1436.58,165.28 1427.32,171.63 1415.54,173.89 1403.76,176.15 1394.85,175.40 1385.95,174.65 1371.05,172.73 1356.16,170.81 1346.14,166.72 1336.12,162.62 1318.88,155.87 1301.63,149.13 1284.55,142.06 1267.46,134.99 1244.55,124.32 1221.65,113.66 1206.31,106.24 1190.98,98.82 1172.43,90.29 1153.89,81.76 1139.17,78.92 1124.46,76.09 1102.50,75.08 1080.55,74.06 1067.97,77.65 1055.38,81.23 1035.86,89.81 1016.34,98.38 1001.97,107.02 987.59,115.67 964.20,133.16 940.81,150.65 925.67,165.96 910.54,181.27 889.96,202.51 869.38,223.75 857.05,238.67 844.72,253.59 830.40,274.32 816.08,295.06 805.57,311.97 795.07,328.89 778.90,350.94 762.73,373.00 752.99,383.12 743.24,393.24 728.39,408.57 713.55,423.90 704.88,429.92 696.22,435.95 685.78,441.12 675.34,446.30 668.56,445.51 661.78,444.72 650.30,443.54 638.82,442.36 629.56,439.63 620.30,436.90 607.52,430.48 594.73,424.07 585.29,415.80 575.85,407.54 561.38,396.08 546.91,384.61 539.73,373.61 532.55,362.61 524.50,348.89 516.46,335.17 498.03,306.24 479.60,277.32 469.30,269.56 459.00,261.80 448.34,255.03 437.69,248.27 431.08,248.84 424.48,249.41 412.85,251.09 401.23,252.77 392.00,256.91 382.76,261.05 368.97,270.95 355.17,280.85 344.99,293.55 334.81,306.25 319.66,324.03 304.50,341.81 294.05,357.78 283.59,373.75 267.35,399.87 251.10,425.99 243.01,437.17 234.92,448.36 224.16,463.22 213.41,478.09 205.81,485.91 198.21,493.72 186.06,506.82 173.90,519.91 163.22,526.38 152.53,532.85 135.94,538.87 119.34,544.89 108.14,544.00 96.95,543.10 80.89,540.58 64.83,538.05 57.12,532.97 49.42,527.89 39.44,521.28 29.47,514.67 22.48,506.28 15.49,497.89 5.41,486.75 -4.67,475.61 -5.09,475.00 -5.52,474.38 -5.79,473.67 -6.06,472.97 -6.15,472.22 -6.24,471.47 -6.15,470.73 -6.06,469.98 -5.80,469.27 -5.53,468.57 -5.11,467.95 -4.68,467.33 -4.12,466.83 -3.55,466.33 -2.89,465.98 -2.22,465.62 -1.49,465.44 -0.76,465.26 -0.00,465.26 0.74,465.26 1.47,465.44 2.20,465.62 2.87,465.97 3.54,466.32 4.10,466.81 4.67,467.31 4.67,467.31 L 4.67,467.31 Z"></path>
  </g>
</svg>