<svg version="1.1" xmlns="http://www.w3.org/2000/svg" viewBox="0 0 1902.6681265384736 114.65210330232367" width="1902.6681265384736" height="114.65210330232367">
    <!-- svg-source:excalidraw -->
    <defs>
        <style class="style-fonts">
      @font-face {
        font-family: "Virgil";
        src: url("https://excalidraw.com/Virgil.woff2");
      }
      @font-face {
        font-family: "Cascadia";
        src: url("https://excalidraw.com/Cascadia.woff2");
      }
    </style>
    </defs>
    <rect x="0" y="0" width="1902.6681265384736" height="114.65210330232367" fill="transparent"></rect>
    <g stroke-linecap="round" transform="translate(10 10.001922223194924) rotate(0 55.01445008223777 46.47767940357244)">
        <path d="M0 0 L110.03 0 L110.03 92.96 L0 92.96" stroke="none" stroke-width="0" fill="#000"></path>
        <path d="M0 0 C40.37 0, 80.75 0, 110.03 0 M0 0 C34.82 0, 69.64 0, 110.03 0 M110.03 0 C110.03 27.72, 110.03 55.45, 110.03 92.96 M110.03 0 C110.03 24.75, 110.03 49.5, 110.03 92.96 M110.03 92.96 C83.89 92.96, 57.75 92.96, 0 92.96 M110.03 92.96 C78.85 92.96, 47.66 92.96, 0 92.96 M0 92.96 C0 61.19, 0 29.43, 0 0 M0 92.96 C0 60.24, 0 27.53, 0 0" stroke="#000" stroke-width="1" fill="none"></path>
    </g>
    <g stroke-linecap="round" transform="translate(120.20528970646228 10.876935063517521) rotate(0 55.01445008223777 46.47767940357244)">
        <path d="M0 0 C37.24 0, 74.47 0, 110.03 0 M0 0 C27.74 0, 55.48 0, 110.03 0 M110.03 0 C110.03 27.33, 110.03 54.66, 110.03 92.96 M110.03 0 C110.03 36.98, 110.03 73.97, 110.03 92.96 M110.03 92.96 C82.41 92.96, 54.79 92.96, 0 92.96 M110.03 92.96 C71.47 92.96, 32.92 92.96, 0 92.96 M0 92.96 C0 63.41, 0 33.86, 0 0 M0 92.96 C0 69.53, 0 46.1, 0 0" stroke="#000" stroke-width="1" fill="none"></path>
    </g>
    <g stroke-linecap="round" transform="translate(232.13852330736063 10.821731654852556) rotate(0 55.01445008223777 46.47767940357244)">
        <path d="M0 0 L110.03 0 L110.03 92.96 L0 92.96" stroke="none" stroke-width="0" fill="#000"></path>
        <path d="M0 0 C24.28 0, 48.55 0, 110.03 0 M0 0 C32.23 0, 64.46 0, 110.03 0 M110.03 0 C110.03 24.81, 110.03 49.62, 110.03 92.96 M110.03 0 C110.03 27.03, 110.03 54.06, 110.03 92.96 M110.03 92.96 C86.4 92.96, 62.77 92.96, 0 92.96 M110.03 92.96 C85.77 92.96, 61.51 92.96, 0 92.96 M0 92.96 C0 67.01, 0 41.07, 0 0 M0 92.96 C0 72.32, 0 51.69, 0 0" stroke="#000" stroke-width="1" fill="none"></path>
    </g>
    <g stroke-linecap="round" transform="translate(342.3438130138229 11.696744495178791) rotate(0 55.01445008223777 46.47767940357244)">
        <path d="M0 0 C35.14 0, 70.29 0, 110.03 0 M0 0 C24.07 0, 48.13 0, 110.03 0 M110.03 0 C110.03 26.97, 110.03 53.95, 110.03 92.96 M110.03 0 C110.03 33.4, 110.03 66.8, 110.03 92.96 M110.03 92.96 C85.52 92.96, 61.01 92.96, 0 92.96 M110.03 92.96 C87.13 92.96, 64.22 92.96, 0 92.96 M0 92.96 C0 60.98, 0 29, 0 0 M0 92.96 C0 62.32, 0 31.68, 0 0" stroke="#000" stroke-width="1" fill="none"></path>
    </g>
    <g stroke-linecap="round" transform="translate(453.0750792573135 10.867584467776396) rotate(0 55.01445008223777 46.47767940357244)">
        <path d="M0 0 L110.03 0 L110.03 92.96 L0 92.96" stroke="none" stroke-width="0" fill="#000"></path>
        <path d="M0 0 C28.39 0, 56.79 0, 110.03 0 M0 0 C22.61 0, 45.22 0, 110.03 0 M110.03 0 C110.03 33.2, 110.03 66.39, 110.03 92.96 M110.03 0 C110.03 30.77, 110.03 61.54, 110.03 92.96 M110.03 92.96 C84.78 92.96, 59.52 92.96, 0 92.96 M110.03 92.96 C80.65 92.96, 51.28 92.96, 0 92.96 M0 92.96 C0 64.31, 0 35.67, 0 0 M0 92.96 C0 55.97, 0 18.98, 0 0" stroke="#000" stroke-width="1" fill="none"></path>
    </g>
    <g stroke-linecap="round" transform="translate(563.2803689637758 10.742597308095355) rotate(0 55.01445008223777 46.47767940357244)">
        <path d="M0 0 C22.01 0, 44.01 0, 110.03 0 M0 0 C38.93 0, 77.87 0, 110.03 0 M110.03 0 C110.03 20.56, 110.03 41.13, 110.03 92.96 M110.03 0 C110.03 26.33, 110.03 52.67, 110.03 92.96 M110.03 92.96 C67.13 92.96, 24.24 92.96, 0 92.96 M110.03 92.96 C83.49 92.96, 56.95 92.96, 0 92.96 M0 92.96 C0 64.84, 0 36.73, 0 0 M0 92.96 C0 59.5, 0 26.05, 0 0" stroke="#000" stroke-width="1" fill="none"></path>
    </g>
    <g stroke-linecap="round" transform="translate(675.2136025646741 10.68739389943039) rotate(0 55.01445008223777 46.47767940357244)">
        <path d="M0 0 L110.03 0 L110.03 92.96 L0 92.96" stroke="none" stroke-width="0" fill="#000"></path>
        <path d="M0 0 C28.75 0, 57.51 0, 110.03 0 M0 0 C34.09 0, 68.17 0, 110.03 0 M110.03 0 C110.03 25.02, 110.03 50.04, 110.03 92.96 M110.03 0 C110.03 28.25, 110.03 56.51, 110.03 92.96 M110.03 92.96 C77.7 92.96, 45.36 92.96, 0 92.96 M110.03 92.96 C68.95 92.96, 27.87 92.96, 0 92.96 M0 92.96 C0 66.43, 0 39.9, 0 0 M0 92.96 C0 62.22, 0 31.48, 0 0" stroke="#000" stroke-width="1" fill="none"></path>
    </g>
    <g stroke-linecap="round" transform="translate(785.4188922711364 11.562406739756625) rotate(0 55.01445008223777 46.47767940357244)">
        <path d="M0 0 C42.8 0, 85.6 0, 110.03 0 M0 0 C28.31 0, 56.61 0, 110.03 0 M110.03 0 C110.03 33.21, 110.03 66.43, 110.03 92.96 M110.03 0 C110.03 26.21, 110.03 52.42, 110.03 92.96 M110.03 92.96 C67.52 92.96, 25.01 92.96, 0 92.96 M110.03 92.96 C82.31 92.96, 54.59 92.96, 0 92.96 M0 92.96 C0 63.54, 0 34.13, 0 0 M0 92.96 C0 71.09, 0 49.22, 0 0" stroke="#000" stroke-width="1" fill="none"></path>
    </g>
    <g stroke-linecap="round" transform="translate(895.365937264401 10) rotate(0 55.01445008223777 46.47767940357244)">
        <path d="M0 0 L110.03 0 L110.03 92.96 L0 92.96" stroke="none" stroke-width="0" fill="#000"></path>
        <path d="M0 0 C30.19 0, 60.39 0, 110.03 0 M0 0 C32.81 0, 65.63 0, 110.03 0 M110.03 0 C110.03 36.81, 110.03 73.62, 110.03 92.96 M110.03 0 C110.03 20.1, 110.03 40.2, 110.03 92.96 M110.03 92.96 C82.51 92.96, 54.99 92.96, 0 92.96 M110.03 92.96 C86.89 92.96, 63.75 92.96, 0 92.96 M0 92.96 C0 68.5, 0 44.04, 0 0 M0 92.96 C0 58.82, 0 24.68, 0 0" stroke="#000" stroke-width="1" fill="none"></path>
    </g>
    <g stroke-linecap="round" transform="translate(1005.5712269708633 10.87501284031896) rotate(0 55.01445008223777 46.47767940357244)">
        <path d="M0 0 C23.23 0, 46.47 0, 110.03 0 M0 0 C38.13 0, 76.26 0, 110.03 0 M110.03 0 C110.03 26.91, 110.03 53.81, 110.03 92.96 M110.03 0 C110.03 35.06, 110.03 70.13, 110.03 92.96 M110.03 92.96 C85.7 92.96, 61.38 92.96, 0 92.96 M110.03 92.96 C85.29 92.96, 60.56 92.96, 0 92.96 M0 92.96 C0 71.65, 0 50.34, 0 0 M0 92.96 C0 56.29, 0 19.63, 0 0" stroke="#000" stroke-width="1" fill="none"></path>
    </g>
    <g stroke-linecap="round" transform="translate(1117.5044605717617 10.819809431653994) rotate(0 55.01445008223777 46.47767940357244)">
        <path d="M0 0 L110.03 0 L110.03 92.96 L0 92.96" stroke="none" stroke-width="0" fill="#000"></path>
        <path d="M0 0 C24.21 0, 48.43 0, 110.03 0 M0 0 C25.75 0, 51.49 0, 110.03 0 M110.03 0 C110.03 34.23, 110.03 68.46, 110.03 92.96 M110.03 0 C110.03 21.23, 110.03 42.46, 110.03 92.96 M110.03 92.96 C74.06 92.96, 38.09 92.96, 0 92.96 M110.03 92.96 C87.57 92.96, 65.1 92.96, 0 92.96 M0 92.96 C0 73.44, 0 53.92, 0 0 M0 92.96 C0 70.64, 0 48.32, 0 0" stroke="#000" stroke-width="1" fill="none"></path>
    </g>
    <g stroke-linecap="round" transform="translate(1227.709750278224 11.694822271980229) rotate(0 55.01445008223777 46.47767940357244)">
        <path d="M0 0 C40.57 0, 81.14 0, 110.03 0 M0 0 C31.54 0, 63.07 0, 110.03 0 M110.03 0 C110.03 22.67, 110.03 45.33, 110.03 92.96 M110.03 0 C110.03 33.79, 110.03 67.59, 110.03 92.96 M110.03 92.96 C79.84 92.96, 49.66 92.96, 0 92.96 M110.03 92.96 C66.41 92.96, 22.78 92.96, 0 92.96 M0 92.96 C0 64.15, 0 35.35, 0 0 M0 92.96 C0 68.85, 0 44.74, 0 0" stroke="#000" stroke-width="1" fill="none"></path>
    </g>
    <g stroke-linecap="round" transform="translate(1338.4410165217146 10.865662244577834) rotate(0 55.01445008223777 46.47767940357244)">
        <path d="M0 0 L110.03 0 L110.03 92.96 L0 92.96" stroke="none" stroke-width="0" fill="#000"></path>
        <path d="M0 0 C41.24 0, 82.48 0, 110.03 0 M0 0 C35.9 0, 71.79 0, 110.03 0 M110.03 0 C110.03 30.66, 110.03 61.32, 110.03 92.96 M110.03 0 C110.03 27.66, 110.03 55.32, 110.03 92.96 M110.03 92.96 C79.93 92.96, 49.83 92.96, 0 92.96 M110.03 92.96 C77.66 92.96, 45.28 92.96, 0 92.96 M0 92.96 C0 73.96, 0 54.96, 0 0 M0 92.96 C0 70.62, 0 48.28, 0 0" stroke="#000" stroke-width="1" fill="none"></path>
    </g>
    <g stroke-linecap="round" transform="translate(1448.6463062281769 10.740675084896793) rotate(0 55.01445008223777 46.47767940357244)">
        <path d="M0 0 C28.61 0, 57.22 0, 110.03 0 M0 0 C32.34 0, 64.69 0, 110.03 0 M110.03 0 C110.03 35.82, 110.03 71.63, 110.03 92.96 M110.03 0 C110.03 23.78, 110.03 47.55, 110.03 92.96 M110.03 92.96 C86.94 92.96, 63.85 92.96, 0 92.96 M110.03 92.96 C81.78 92.96, 53.53 92.96, 0 92.96 M0 92.96 C0 59.22, 0 25.48, 0 0 M0 92.96 C0 61.68, 0 30.41, 0 0" stroke="#000" stroke-width="1" fill="none"></path>
    </g>
    <g stroke-linecap="round" transform="translate(1560.5795398290752 10.685471676231828) rotate(0 55.01445008223777 46.47767940357244)">
        <path d="M0 0 L110.03 0 L110.03 92.96 L0 92.96" stroke="none" stroke-width="0" fill="#000"></path>
        <path d="M0 0 C40.58 0, 81.15 0, 110.03 0 M0 0 C41.89 0, 83.78 0, 110.03 0 M110.03 0 C110.03 30.15, 110.03 60.3, 110.03 92.96 M110.03 0 C110.03 30.97, 110.03 61.95, 110.03 92.96 M110.03 92.96 C72.88 92.96, 35.72 92.96, 0 92.96 M110.03 92.96 C82.17 92.96, 54.31 92.96, 0 92.96 M0 92.96 C0 56.83, 0 20.71, 0 0 M0 92.96 C0 68.5, 0 44.05, 0 0" stroke="#000" stroke-width="1" fill="none"></path>
    </g>
    <g stroke-linecap="round" transform="translate(1670.7848295355375 11.560484516558063) rotate(0 55.01445008223777 46.47767940357244)">
        <path d="M0 0 C26.06 0, 52.11 0, 110.03 0 M0 0 C43.9 0, 87.79 0, 110.03 0 M110.03 0 C110.03 25.91, 110.03 51.82, 110.03 92.96 M110.03 0 C110.03 21.28, 110.03 42.57, 110.03 92.96 M110.03 92.96 C80.86 92.96, 51.69 92.96, 0 92.96 M110.03 92.96 C75.27 92.96, 40.52 92.96, 0 92.96 M0 92.96 C0 68.99, 0 45.02, 0 0 M0 92.96 C0 59.32, 0 25.68, 0 0" stroke="#000" stroke-width="1" fill="none"></path>
    </g>
    <g stroke-linecap="round" transform="translate(1782.639226373998 11.259238075015674) rotate(0 55.01445008223777 46.47767940357244)">
        <path d="M0 0 L110.03 0 L110.03 92.96 L0 92.96" stroke="none" stroke-width="0" fill="#000"></path>
        <path d="M0 0 C31.46 0, 62.93 0, 110.03 0 M0 0 C41 0, 81.99 0, 110.03 0 M110.03 0 C110.03 30.99, 110.03 61.98, 110.03 92.96 M110.03 0 C110.03 35.57, 110.03 71.15, 110.03 92.96 M110.03 92.96 C66.27 92.96, 22.51 92.96, 0 92.96 M110.03 92.96 C80.27 92.96, 50.51 92.96, 0 92.96 M0 92.96 C0 69.17, 0 45.39, 0 0 M0 92.96 C0 65.53, 0 38.1, 0 0" stroke="#000" stroke-width="1" fill="none"></path>
    </g>
</svg>