<svg xmlns="http://www.w3.org/2000/svg" viewBox="0 0 1440 320">
    <path fill="#fff" fill-opacity="1" d="M0,256L16,234.7C32,213,64,171,96,176C128,181,160,235,192,218.7C224,203,256,117,288,106.7C320,96,352,160,384,181.3C416,203,448,181,480,160C512,139,544,117,576,106.7C608,96,640,96,672,128C704,160,736,224,768,208C800,192,832,96,864,101.3C896,107,928,213,960,213.3C992,213,1024,107,1056,90.7C1088,75,1120,149,1152,160C1184,171,1216,117,1248,80C1280,43,1312,21,1344,16C1376,11,1408,21,1424,26.7L1440,32L1440,0L1424,0C1408,0,1376,0,1344,0C1312,0,1280,0,1248,0C1216,0,1184,0,1152,0C1120,0,1088,0,1056,0C1024,0,992,0,960,0C928,0,896,0,864,0C832,0,800,0,768,0C736,0,704,0,672,0C640,0,608,0,576,0C544,0,512,0,480,0C448,0,416,0,384,0C352,0,320,0,288,0C256,0,224,0,192,0C160,0,128,0,96,0C64,0,32,0,16,0L0,0Z" data-darkreader-inline-fill="" style="--darkreader-inline-fill:#3d009a;"></path>
</svg>