<svg xmlns="http://www.w3.org/2000/svg" viewBox="0 0 1440 320">
    <path fill="#e3edfc" fill-opacity="1" d="M0,192L16,202.7C32,213,64,235,96,218.7C128,203,160,149,192,144C224,139,256,181,288,192C320,203,352,181,384,181.3C416,181,448,203,480,197.3C512,192,544,160,576,160C608,160,640,192,672,181.3C704,171,736,117,768,112C800,107,832,149,864,154.7C896,160,928,128,960,106.7C992,85,1024,75,1056,74.7C1088,75,1120,85,1152,117.3C1184,149,1216,203,1248,197.3C1280,192,1312,128,1344,133.3C1376,139,1408,213,1424,250.7L1440,288L1440,0L1424,0C1408,0,1376,0,1344,0C1312,0,1280,0,1248,0C1216,0,1184,0,1152,0C1120,0,1088,0,1056,0C1024,0,992,0,960,0C928,0,896,0,864,0C832,0,800,0,768,0C736,0,704,0,672,0C640,0,608,0,576,0C544,0,512,0,480,0C448,0,416,0,384,0C352,0,320,0,288,0C256,0,224,0,192,0C160,0,128,0,96,0C64,0,32,0,16,0L0,0Z" data-darkreader-inline-fill="" style="--darkreader-inline-fill:#3d009a;"></path>
</svg>