<svg version="1.1" xmlns="http://www.w3.org/2000/svg" viewBox="0 0 268.6546656067594 371.54933516597885" width="268.6546656067594" height="371.54933516597885">
    <!-- svg-source:excalidraw -->
    <defs>
        <style class="style-fonts">
      @font-face {
        font-family: "Virgil";
        src: url("https://excalidraw.com/Virgil.woff2");
      }
      @font-face {
        font-family: "Cascadia";
        src: url("https://excalidraw.com/Cascadia.woff2");
      }
    </style>
    </defs>
    <rect x="0" y="0" width="268.6546656067594" height="371.54933516597885" fill="none"></rect>
    <g stroke-linecap="round">
        <g transform="translate(129.75260628902743 76.694093541254) rotate(376.85473525232663 -4.383903924950118 -22.393727249522726)">
            <path d="M-0.62 -1 C-1.98 -9.92, -4.77 -21.75, -8.15 -44.01 M-0.86 -0.74 C-3.31 -13.79, -5.14 -28.37, -7.98 -44.04" stroke="#fff" stroke-width="2" fill="none"></path>
        </g>
    </g>
    <mask></mask>
    <g stroke-linecap="round" transform="translate(121.35712154166958 9.886293004246) rotate(376.85473525232663 9.369989605444061 10.811526467819931)">
        <path d="M3.03 2.63 C3.03 2.63, 3.03 2.63, 3.03 2.63 M3.03 2.63 C3.03 2.63, 3.03 2.63, 3.03 2.63 M3.21 14.02 C6.2 13.15, 7.43 8.97, 11.45 3.22 M3.03 15.82 C5.13 12.45, 8.09 8.83, 13.53 2.83 M7.8 20.74 C13.87 16.96, 17.17 9.42, 21.83 7.72 M7.41 22 C12.29 16.72, 15.44 13.01, 21.27 7.93" stroke="#fff" stroke-width="1" fill="none"></path>
        <path d="M9.55 0.26 C11.34 0.26, 13.89 1.33, 15.33 2.92 C16.78 4.52, 18.03 7.7, 18.23 9.83 C18.42 11.97, 17.59 13.85, 16.49 15.73 C15.39 17.61, 13.33 20.38, 11.61 21.14 C9.88 21.9, 7.78 21.23, 6.14 20.28 C4.51 19.32, 2.8 17.27, 1.81 15.41 C0.82 13.56, 0.02 11.26, 0.21 9.15 C0.4 7.03, 1.26 4.12, 2.95 2.72 C4.65 1.32, 9 1.1, 10.35 0.76 C11.7 0.42, 10.92 0.71, 11.07 0.69 M14.52 0.41 C16.43 1.36, 17.51 5.51, 18 7.53 C18.5 9.56, 17.84 10.69, 17.5 12.56 C17.16 14.43, 17.68 17.25, 15.96 18.75 C14.23 20.25, 9.16 21.48, 7.16 21.57 C5.15 21.65, 4.91 20.85, 3.92 19.24 C2.93 17.62, 1.72 14.41, 1.24 11.87 C0.77 9.32, 0.24 5.66, 1.07 3.96 C1.9 2.25, 4.1 1.9, 6.23 1.65 C8.36 1.4, 12.81 2.24, 13.86 2.43 C14.91 2.62, 12.83 3.09, 12.53 2.79" stroke="#fff" stroke-width="2" fill="none"></path>
    </g>
    <g stroke-linecap="round">
        <g transform="translate(144.90172866586818 170.4147716667785) rotate(356.02471234182775 -1.6522344627510392 94.85191646284193)" fill-rule="evenodd">
            <path d="M-36.55 22.55 C-36.55 22.55, -36.55 22.55, -36.55 22.55 M-36.55 22.55 C-36.55 22.55, -36.55 22.55, -36.55 22.55 M-43.92 41.39 C-35.87 37.11, -31.04 30.62, -20.35 14.34 M-41.45 40.79 C-36.07 34.3, -32.53 28.29, -18.94 15.75 M-44.33 54.17 C-29.04 36.66, -11.59 21.23, 1.16 3.58 M-43.4 55.36 C-25.12 34.69, -8.46 12.57, 1.87 3.01 M-42.22 66.69 C-25.38 42.77, -5.75 23.36, 10.88 4.22 M-42.2 65.76 C-23.27 44.73, -4.76 22.65, 9.73 4.76 M-40.7 76.79 C-24.58 58.24, -5.33 36.44, 17.08 7.98 M-42.16 77.12 C-26.64 60.85, -11.27 42.53, 17.58 8.39 M-40.79 89.32 C-22.4 68.76, -4.13 43.64, 26.8 12.42 M-40.73 88.43 C-22.52 67.02, -2.91 44.86, 25.83 12.56 M-40.81 100.84 C-12.49 69.16, 13.26 37.29, 33.5 15.98 M-40.21 100.07 C-12.87 69.07, 13.69 38.35, 32.64 16.12 M-41.13 113.58 C-9.75 80.67, 18.78 43.71, 39.63 20.43 M-39.88 113.66 C-14.84 83.86, 10.81 54.62, 40.16 21.38 M-39.04 122.28 C-23.58 100.53, -4.95 82.83, 45.21 27.84 M-39.18 121.73 C-7.17 86.67, 24.6 50.31, 43.79 28.95 M-36.68 133.05 C-12.17 103.08, 17.59 69.81, 45.68 38.7 M-36.98 132.36 C-17.89 110.68, 2.95 89.38, 45.62 36.67 M-34.63 144.13 C-18.21 121.91, 0.08 99.52, 45.84 47.93 M-35.54 142.91 C-4.38 108.43, 25.02 73.6, 47.13 49.48 M-33.95 153.96 C-14.79 129.38, 3.75 111.83, 43.05 62 M-33.87 151.81 C-11.34 128.4, 8.34 103.57, 43.92 63.42 M-30.97 160.53 C-7.78 136.44, 14.06 112.36, 43.76 75.41 M-30.87 162.81 C-4.3 129.7, 24.76 98.36, 43.01 77.86 M-28.04 169.11 C-2.38 143.48, 22.72 113.66, 40.18 91.88 M-27.46 170.57 C-7.52 146.89, 12.81 123.54, 41.1 91.65 M-23.63 179.95 C-8 159.92, 11.31 138.45, 42.07 104.51 M-24.96 179.17 C-3.69 157.26, 15.51 132.81, 41.04 105.02 M-19.85 187.65 C-2.88 168.83, 14.42 149.2, 37.44 121.53 M-19.98 187.33 C-5.52 169.42, 10.17 151.02, 36.19 120.24 M-15.11 191.93 C0.36 175.22, 12.94 163.58, 31.56 138.14 M-13.44 192.03 C-2.59 178.26, 8.61 167.31, 34.05 137.29 M-1.63 191.24 C4.23 182.38, 7.84 178.97, 21.2 166.32 M-1.45 189.99 C5.71 180.69, 14.7 172.31, 20.2 164.5" stroke="#fff" stroke-width="1" fill="none"></path>
            <path d="M-0.6 0.07 C6.35 5.6, 38.42 5.56, 41.72 32.86 C45.02 60.15, 30.63 139.55, 19.2 163.83 C7.78 188.11, -16.22 199.02, -26.85 178.54 C-37.48 158.06, -48.88 70.83, -44.57 40.92 C-40.27 11.02, -8.32 5.91, -1.03 -0.89 M1.29 -0.94 C8.12 4.8, 38.2 6.52, 41.05 34.23 C43.9 61.94, 29.69 141.05, 18.39 165.31 C7.09 189.56, -16.59 200.37, -26.77 179.77 C-36.94 159.17, -47.08 71.44, -42.64 41.69 C-38.21 11.94, -7.16 8.41, -0.17 1.26" stroke="#fff" stroke-width="2" fill="none"></path>
        </g>
    </g>
    <mask></mask>
    <g stroke-linecap="round">
        <g transform="translate(189.11444982154626 211.8530340462903) rotate(7.182594496707925 34.25088539357148 -79.70786094619234)">
            <path d="M0.07 0.52 C11.74 -11.78, 66.16 -47.7, 69.66 -74.45 C73.16 -101.19, 29.19 -145.66, 21.08 -159.94 M-1.36 -0.25 C10.16 -12.31, 64.91 -46.54, 68.55 -72.96 C72.19 -99.38, 28.33 -144.39, 20.47 -158.78" stroke="#fff" stroke-width="2" fill="none"></path>
        </g>
    </g>
    <mask></mask>
    <g stroke-linecap="round">
        <g transform="translate(81.32085373759855 218.98320920334936) rotate(348.60478902668814 -37.5496490636142 -75.4818747230197)">
            <path d="M0.52 -0.32 C-11.63 -7.02, -66.01 -15.1, -73.49 -40.15 C-80.98 -65.21, -49.23 -132.31, -44.41 -150.65 M-0.66 -1.53 C-12.92 -8.61, -67.05 -17.5, -74.49 -42.12 C-81.94 -66.73, -50.32 -130.83, -45.34 -149.21" stroke="#fff" stroke-width="2" fill="none"></path>
        </g>
    </g>
    <mask></mask>
    <g stroke-linecap="round" transform="translate(65.89689811594053 78.37280145388377) rotate(350.1341930569157 61.210597429550035 40.23366560251634)">
        <path d="M5.35 4.65 C5.35 4.65, 5.35 4.65, 5.35 4.65 M5.35 4.65 C5.35 4.65, 5.35 4.65, 5.35 4.65 M4.18 18.21 C6.81 16.03, 8.47 12.71, 15.33 5.37 M4.18 18.21 C7.66 15.22, 10.3 11.33, 15.33 5.37 M3.65 31 C8.16 24.58, 16.06 16.99, 25.96 5.34 M3.65 31 C7.42 25.63, 13.9 20.73, 25.96 5.34 M3.79 43.04 C15.59 27.6, 30.52 14.87, 36.59 5.31 M3.79 43.04 C16.03 27.11, 29.08 13.87, 36.59 5.31 M3.92 55.08 C18.18 35.35, 35.69 16.35, 47.22 5.27 M3.92 55.08 C14.27 42.58, 27.03 29.45, 47.22 5.27 M3.4 67.88 C20.24 50.51, 33.17 29.72, 57.85 5.24 M3.4 67.88 C15.3 53.14, 29.78 37.15, 57.85 5.24 M6.81 76.15 C21.07 60.68, 34.38 45.59, 68.48 5.2 M6.81 76.15 C28.16 51.37, 50.8 25.69, 68.48 5.2 M12.85 81.39 C39.51 50.72, 66.82 22.5, 79.11 5.17 M12.85 81.39 C30.96 60.89, 47.44 40.58, 79.11 5.17 M22.17 82.87 C38.13 62.38, 56.71 45.63, 89.74 5.13 M22.17 82.87 C48.71 53.15, 75.44 22.74, 89.74 5.13 M32.8 82.83 C56.95 56.05, 76.46 32.09, 103.65 1.33 M32.8 82.83 C57.18 56.44, 79.4 28.72, 103.65 1.33 M43.43 82.8 C67.15 56.77, 92.39 26.34, 112.31 3.56 M43.43 82.8 C65.87 57.23, 87.37 31.37, 112.31 3.56 M54.06 82.77 C76.5 57.33, 100.55 29.26, 119.66 7.29 M54.06 82.77 C75.62 58.7, 95.76 34.9, 119.66 7.29 M64.69 82.73 C85.52 61.87, 106.18 37.93, 122.42 16.32 M64.69 82.73 C78.35 67.42, 90.77 52.59, 122.42 16.32 M75.32 82.7 C93.11 63.34, 112.93 42.65, 122.55 28.36 M75.32 82.7 C84.74 70.82, 94.12 58.65, 122.55 28.36 M85.95 82.66 C96.35 71.33, 106.97 56.55, 122.69 40.4 M85.95 82.66 C95.57 72.24, 104.66 61.37, 122.69 40.4 M96.58 82.63 C104.1 72.06, 115.41 58.62, 122.82 52.44 M96.58 82.63 C105.78 72.53, 114.68 61.13, 122.82 52.44 M105.89 84.1 C109.29 78.53, 115.44 76.79, 124.92 62.22 M105.89 84.1 C111.58 78.44, 116.33 73.32, 124.92 62.22" stroke="#fff" stroke-width="1" fill="none"></path>
        <path d="M20.12 0 M20.12 0 C39.85 0.2, 60.02 1.87, 102.3 0 M20.12 0 C37.96 0.29, 56.01 -0.36, 102.3 0 M102.3 0 C115.43 2, 122.64 5.47, 122.42 20.12 M102.3 0 C117.75 0.99, 121.46 8.11, 122.42 20.12 M122.42 20.12 C123.89 32.34, 120.38 46.48, 122.42 60.35 M122.42 20.12 C121.48 33.26, 122.27 44.24, 122.42 60.35 M122.42 60.35 C120.98 73.01, 115.2 80.49, 102.3 80.47 M122.42 60.35 C121.29 74.15, 115.78 78.19, 102.3 80.47 M102.3 80.47 C76.92 81.12, 47.05 82.04, 20.12 80.47 M102.3 80.47 C72.14 79.85, 40.74 80.85, 20.12 80.47 M20.12 80.47 C7.35 80.26, 1.27 74.92, 0 60.35 M20.12 80.47 C5.4 81.81, -0.5 71.84, 0 60.35 M0 60.35 C-0.27 46.94, 0.05 35.55, 0 20.12 M0 60.35 C-0.48 48.22, -0.62 36.32, 0 20.12 M0 20.12 C-1.25 6.35, 6.93 -0.41, 20.12 0 M0 20.12 C-1.32 4.49, 8.1 0.17, 20.12 0" stroke="#fff" stroke-width="2" fill="none"></path>
    </g>
    <g stroke-linecap="round">
        <g transform="translate(148.60607815402454 133.82107335869023) rotate(0 -23.442709681486576 6.788427868214967)" fill-rule="evenodd">
            <path d="M0.03 1.02 L-30.62 2.71 L-59.66 0.13 L-62.53 0.52 L-42.42 12.59 L-28.29 19.91 L-17.25 24.86 L-8.47 18.44 L4.21 7.03 L14.48 -7.93 L-1.4 -1.6" stroke="none" stroke-width="0" fill="#fff" fill-rule="evenodd"></path>
            <path d="M-0.1 0.3 C-5.14 0.72, -19.25 2.14, -29.74 2.2 C-40.22 2.25, -64.82 -2.75, -63.02 0.66 C-61.22 4.06, -31.95 24.21, -18.94 22.62 C-5.94 21.03, 11.82 -4.99, 15.02 -8.88 C18.22 -12.77, 2.63 -2.07, 0.26 -0.7 M-1.61 -0.58 C-6.88 -0.52, -20.44 0.32, -30.84 0.2 C-41.25 0.08, -65.98 -5.15, -64.05 -1.31 C-62.11 2.53, -32.71 24.44, -19.24 23.25 C-5.77 22.07, 13.24 -4.82, 16.75 -8.44 C20.26 -12.06, 4.9 -0.08, 1.81 1.55" stroke="#fff" stroke-width="2" fill="none"></path>
        </g>
    </g>
    <mask></mask>
    <g stroke-linecap="round" transform="translate(89.21370579969789 90.46874120477605) rotate(0 12.566905633379065 13.954867266872952)">
        <path d="M10.27 -0.19 C12.91 -0.99, 16.38 0.93, 18.75 2.31 C21.12 3.69, 23.51 5.46, 24.51 8.1 C25.52 10.73, 25.48 15.17, 24.77 18.15 C24.05 21.12, 22.62 24.49, 20.24 25.96 C17.87 27.43, 13.38 27.2, 10.51 26.98 C7.64 26.75, 4.7 26.75, 3.03 24.61 C1.36 22.47, 0.45 17.22, 0.48 14.13 C0.51 11.04, 1.51 8.51, 3.22 6.07 C4.94 3.62, 9.52 0.41, 10.75 -0.56 C11.99 -1.53, 10.67 -0.15, 10.64 0.24 M9.22 1.1 C11.4 0.27, 15.02 0.92, 17.68 2.01 C20.34 3.1, 23.79 5.13, 25.17 7.64 C26.56 10.16, 27.05 14.1, 25.99 17.1 C24.93 20.11, 21.43 23.75, 18.82 25.66 C16.22 27.56, 12.81 29.01, 10.38 28.54 C7.95 28.07, 6.04 24.98, 4.22 22.84 C2.4 20.71, -0.36 18.59, -0.54 15.73 C-0.73 12.86, 1.54 8.24, 3.1 5.66 C4.66 3.09, 7.82 0.95, 8.83 0.26 C9.84 -0.43, 8.83 1.32, 9.15 1.5" stroke="none" stroke-width="0" fill="#fff"></path>
        <path d="M12.96 -0.67 C15.46 -0.66, 18.78 2.11, 20.84 4.28 C22.9 6.45, 24.88 9.45, 25.32 12.33 C25.75 15.2, 25.05 18.95, 23.45 21.56 C21.84 24.17, 18.51 27.09, 15.69 27.99 C12.86 28.88, 8.95 28.17, 6.52 26.91 C4.09 25.64, 2.1 23.14, 1.1 20.4 C0.09 17.66, -0.43 13.55, 0.47 10.47 C1.37 7.39, 3.85 3.68, 6.48 1.91 C9.11 0.13, 14.49 -0.16, 16.26 -0.18 C18.02 -0.2, 17.34 1.44, 17.07 1.76 M18.38 -0.15 C20.78 0.9, 21.02 4.19, 22.33 7.13 C23.63 10.06, 26.33 14.49, 26.23 17.48 C26.14 20.48, 24.18 23.43, 21.76 25.09 C19.33 26.75, 14.73 27.31, 11.68 27.44 C8.63 27.57, 5.33 27.53, 3.47 25.88 C1.61 24.23, 0.95 20.46, 0.51 17.54 C0.08 14.61, -0.28 11.35, 0.86 8.32 C2 5.29, 4.76 0.46, 7.35 -0.67 C9.95 -1.8, 14.65 1.14, 16.44 1.54 C18.23 1.94, 18.02 1.87, 18.08 1.74" stroke="#fff" stroke-width="2" fill="none"></path>
    </g>
    <g stroke-linecap="round" transform="translate(95.3671720405282 97.17197346567173) rotate(0 3.8377975287567097 5.117063371675613)">
        <path d="M7.68 5.12 C7.68 5.41, 7.66 5.71, 7.62 6.01 C7.58 6.3, 7.52 6.59, 7.44 6.87 C7.37 7.15, 7.27 7.42, 7.16 7.68 C7.05 7.93, 6.92 8.18, 6.78 8.41 C6.63 8.63, 6.47 8.85, 6.3 9.04 C6.13 9.23, 5.95 9.4, 5.76 9.55 C5.56 9.7, 5.36 9.82, 5.15 9.93 C4.94 10.03, 4.72 10.1, 4.5 10.16 C4.29 10.21, 4.06 10.23, 3.84 10.23 C3.62 10.23, 3.39 10.21, 3.17 10.16 C2.95 10.1, 2.73 10.03, 2.53 9.93 C2.32 9.82, 2.11 9.7, 1.92 9.55 C1.73 9.4, 1.54 9.23, 1.37 9.04 C1.2 8.85, 1.04 8.63, 0.9 8.41 C0.76 8.18, 0.63 7.93, 0.51 7.68 C0.4 7.42, 0.31 7.15, 0.23 6.87 C0.16 6.59, 0.1 6.3, 0.06 6.01 C0.02 5.71, 0 5.41, 0 5.12 C0 4.82, 0.02 4.52, 0.06 4.23 C0.1 3.94, 0.16 3.65, 0.23 3.37 C0.31 3.09, 0.4 2.82, 0.51 2.56 C0.63 2.3, 0.76 2.05, 0.9 1.83 C1.04 1.6, 1.2 1.39, 1.37 1.2 C1.54 1.01, 1.73 0.83, 1.92 0.69 C2.11 0.54, 2.32 0.41, 2.53 0.31 C2.73 0.21, 2.95 0.13, 3.17 0.08 C3.39 0.03, 3.62 0, 3.84 0 C4.06 0, 4.29 0.03, 4.5 0.08 C4.72 0.13, 4.94 0.21, 5.15 0.31 C5.36 0.41, 5.56 0.54, 5.76 0.69 C5.95 0.83, 6.13 1.01, 6.3 1.2 C6.47 1.39, 6.63 1.6, 6.78 1.83 C6.92 2.05, 7.05 2.3, 7.16 2.56 C7.27 2.82, 7.37 3.09, 7.44 3.37 C7.52 3.65, 7.58 3.94, 7.62 4.23 C7.66 4.52, 7.67 4.97, 7.68 5.12 C7.69 5.27, 7.69 4.97, 7.68 5.12" stroke="none" stroke-width="0" fill="#fff"></path>
        <path d="M7.68 5.12 C7.68 5.41, 7.66 5.71, 7.62 6.01 C7.58 6.3, 7.52 6.59, 7.44 6.87 C7.37 7.15, 7.27 7.42, 7.16 7.68 C7.05 7.93, 6.92 8.18, 6.78 8.41 C6.63 8.63, 6.47 8.85, 6.3 9.04 C6.13 9.23, 5.95 9.4, 5.76 9.55 C5.56 9.7, 5.36 9.82, 5.15 9.93 C4.94 10.03, 4.72 10.1, 4.5 10.16 C4.29 10.21, 4.06 10.23, 3.84 10.23 C3.62 10.23, 3.39 10.21, 3.17 10.16 C2.95 10.1, 2.73 10.03, 2.53 9.93 C2.32 9.82, 2.11 9.7, 1.92 9.55 C1.73 9.4, 1.54 9.23, 1.37 9.04 C1.2 8.85, 1.04 8.63, 0.9 8.41 C0.76 8.18, 0.63 7.93, 0.51 7.68 C0.4 7.42, 0.31 7.15, 0.23 6.87 C0.16 6.59, 0.1 6.3, 0.06 6.01 C0.02 5.71, 0 5.41, 0 5.12 C0 4.82, 0.02 4.52, 0.06 4.23 C0.1 3.94, 0.16 3.65, 0.23 3.37 C0.31 3.09, 0.4 2.82, 0.51 2.56 C0.63 2.3, 0.76 2.05, 0.9 1.83 C1.04 1.6, 1.2 1.39, 1.37 1.2 C1.54 1.01, 1.73 0.83, 1.92 0.69 C2.11 0.54, 2.32 0.41, 2.53 0.31 C2.73 0.21, 2.95 0.13, 3.17 0.08 C3.39 0.03, 3.62 0, 3.84 0 C4.06 0, 4.29 0.03, 4.5 0.08 C4.72 0.13, 4.94 0.21, 5.15 0.31 C5.36 0.41, 5.56 0.54, 5.76 0.69 C5.95 0.83, 6.13 1.01, 6.3 1.2 C6.47 1.39, 6.63 1.6, 6.78 1.83 C6.92 2.05, 7.05 2.3, 7.16 2.56 C7.27 2.82, 7.37 3.09, 7.44 3.37 C7.52 3.65, 7.58 3.94, 7.62 4.23 C7.66 4.52, 7.67 4.97, 7.68 5.12 C7.69 5.27, 7.69 4.97, 7.68 5.12" stroke="#fff" stroke-width="2" fill="none"></path>
    </g>
    <g stroke-linecap="round" transform="translate(134.1002266038622 87.47630648449649) rotate(0 12.566905633379065 13.954867266872952)">
        <path d="M16.11 1.29 C18.59 1.83, 21.57 3.13, 23.09 5.43 C24.6 7.73, 25.34 12, 25.22 15.09 C25.1 18.17, 24.35 21.96, 22.36 23.94 C20.37 25.91, 16.17 26.5, 13.3 26.94 C10.44 27.38, 7.24 28.2, 5.19 26.58 C3.14 24.95, 1.55 20.14, 1 17.18 C0.44 14.21, 0.84 11.5, 1.86 8.77 C2.87 6.04, 4.82 2.15, 7.08 0.78 C9.33 -0.59, 13.72 0.45, 15.39 0.57 C17.05 0.69, 17.04 1.17, 17.07 1.52 M14.91 0.85 C17.71 1.07, 21.79 2.6, 23.73 4.77 C25.67 6.95, 26.98 10.74, 26.54 13.88 C26.1 17.01, 23.32 21.13, 21.12 23.58 C18.92 26.03, 15.78 28.35, 13.34 28.58 C10.9 28.81, 8.7 26.59, 6.46 24.99 C4.23 23.39, 0.75 21.72, -0.07 18.97 C-0.88 16.22, 0.57 11.43, 1.58 8.49 C2.6 5.55, 3.83 2.54, 6.04 1.34 C8.25 0.15, 13.17 1.48, 14.86 1.31 C16.54 1.15, 16.19 0.11, 16.17 0.34" stroke="none" stroke-width="0" fill="#fff"></path>
        <path d="M15.57 0.7 C18.24 1.4, 21.66 3.41, 23.35 5.82 C25.04 8.23, 26.08 12.02, 25.71 15.17 C25.34 18.32, 23.3 22.53, 21.11 24.71 C18.93 26.89, 15.27 28.1, 12.58 28.27 C9.88 28.45, 6.99 27.59, 4.94 25.76 C2.9 23.94, 0.74 20.45, 0.31 17.33 C-0.12 14.21, 1 9.84, 2.38 7.05 C3.77 4.26, 6.05 1.44, 8.62 0.56 C11.2 -0.31, 16.26 1.55, 17.83 1.8 C19.41 2.04, 18.09 2.03, 18.07 2.03 M6.21 1.24 C8.47 0.24, 14.3 0.6, 17.3 1.47 C20.29 2.34, 23.01 4.21, 24.18 6.45 C25.35 8.68, 24.96 11.75, 24.33 14.89 C23.71 18.03, 22.18 22.91, 20.43 25.29 C18.68 27.68, 16.52 28.95, 13.84 29.19 C11.16 29.44, 6.74 28.97, 4.33 26.76 C1.91 24.55, -0.06 18.97, -0.67 15.93 C-1.28 12.89, -0.86 10.88, 0.69 8.53 C2.23 6.18, 7.4 3.22, 8.58 1.81 C9.76 0.4, 7.99 0.03, 7.77 0.05" stroke="#fff" stroke-width="2" fill="none"></path>
    </g>
    <g stroke-linecap="round" transform="translate(140.25369284469616 94.17953874539762) rotate(0 3.8377975287567097 5.117063371675613)">
        <path d="M7.68 5.12 C7.68 5.41, 7.66 5.71, 7.62 6.01 C7.58 6.3, 7.52 6.59, 7.44 6.87 C7.37 7.15, 7.27 7.42, 7.16 7.68 C7.05 7.93, 6.92 8.18, 6.78 8.41 C6.63 8.63, 6.47 8.85, 6.3 9.04 C6.13 9.23, 5.95 9.4, 5.76 9.55 C5.56 9.7, 5.36 9.82, 5.15 9.93 C4.94 10.03, 4.72 10.1, 4.5 10.16 C4.29 10.21, 4.06 10.23, 3.84 10.23 C3.62 10.23, 3.39 10.21, 3.17 10.16 C2.95 10.1, 2.73 10.03, 2.53 9.93 C2.32 9.82, 2.11 9.7, 1.92 9.55 C1.73 9.4, 1.54 9.23, 1.37 9.04 C1.2 8.85, 1.04 8.63, 0.9 8.41 C0.76 8.18, 0.63 7.93, 0.51 7.68 C0.4 7.42, 0.31 7.15, 0.23 6.87 C0.16 6.59, 0.1 6.3, 0.06 6.01 C0.02 5.71, 0 5.41, 0 5.12 C0 4.82, 0.02 4.52, 0.06 4.23 C0.1 3.94, 0.16 3.65, 0.23 3.37 C0.31 3.09, 0.4 2.82, 0.51 2.56 C0.63 2.3, 0.76 2.05, 0.9 1.83 C1.04 1.6, 1.2 1.39, 1.37 1.2 C1.54 1.01, 1.73 0.83, 1.92 0.69 C2.11 0.54, 2.32 0.41, 2.53 0.31 C2.73 0.21, 2.95 0.13, 3.17 0.08 C3.39 0.03, 3.62 0, 3.84 0 C4.06 0, 4.29 0.03, 4.5 0.08 C4.72 0.13, 4.94 0.21, 5.15 0.31 C5.36 0.41, 5.56 0.54, 5.76 0.69 C5.95 0.83, 6.13 1.01, 6.3 1.2 C6.47 1.39, 6.63 1.6, 6.78 1.83 C6.92 2.05, 7.05 2.3, 7.16 2.56 C7.27 2.82, 7.37 3.09, 7.44 3.37 C7.52 3.65, 7.58 3.94, 7.62 4.23 C7.66 4.52, 7.67 4.97, 7.68 5.12 C7.69 5.27, 7.69 4.97, 7.68 5.12" stroke="none" stroke-width="0" fill="#fff"></path>
        <path d="M7.68 5.12 C7.68 5.41, 7.66 5.71, 7.62 6.01 C7.58 6.3, 7.52 6.59, 7.44 6.87 C7.37 7.15, 7.27 7.42, 7.16 7.68 C7.05 7.93, 6.92 8.18, 6.78 8.41 C6.63 8.63, 6.47 8.85, 6.3 9.04 C6.13 9.23, 5.95 9.4, 5.76 9.55 C5.56 9.7, 5.36 9.82, 5.15 9.93 C4.94 10.03, 4.72 10.1, 4.5 10.16 C4.29 10.21, 4.06 10.23, 3.84 10.23 C3.62 10.23, 3.39 10.21, 3.17 10.16 C2.95 10.1, 2.73 10.03, 2.53 9.93 C2.32 9.82, 2.11 9.7, 1.92 9.55 C1.73 9.4, 1.54 9.23, 1.37 9.04 C1.2 8.85, 1.04 8.63, 0.9 8.41 C0.76 8.18, 0.63 7.93, 0.51 7.68 C0.4 7.42, 0.31 7.15, 0.23 6.87 C0.16 6.59, 0.1 6.3, 0.06 6.01 C0.02 5.71, 0 5.41, 0 5.12 C0 4.82, 0.02 4.52, 0.06 4.23 C0.1 3.94, 0.16 3.65, 0.23 3.37 C0.31 3.09, 0.4 2.82, 0.51 2.56 C0.63 2.3, 0.76 2.05, 0.9 1.83 C1.04 1.6, 1.2 1.39, 1.37 1.2 C1.54 1.01, 1.73 0.83, 1.92 0.69 C2.11 0.54, 2.32 0.41, 2.53 0.31 C2.73 0.21, 2.95 0.13, 3.17 0.08 C3.39 0.03, 3.62 0, 3.84 0 C4.06 0, 4.29 0.03, 4.5 0.08 C4.72 0.13, 4.94 0.21, 5.15 0.31 C5.36 0.41, 5.56 0.54, 5.76 0.69 C5.95 0.83, 6.13 1.01, 6.3 1.2 C6.47 1.39, 6.63 1.6, 6.78 1.83 C6.92 2.05, 7.05 2.3, 7.16 2.56 C7.27 2.82, 7.37 3.09, 7.44 3.37 C7.52 3.65, 7.58 3.94, 7.62 4.23 C7.66 4.52, 7.67 4.97, 7.68 5.12 C7.69 5.27, 7.69 4.97, 7.68 5.12" stroke="#fff" stroke-width="2" fill="none"></path>
    </g>
</svg>